#!OML:ASF F:\VICON\USERDATA\INSTALL\rory3\rory3.ASF
:FULLY-SPECIFIED
:DEGREES
383
root 3.21541 19.2309 -3.47014 83.289 -31.0007 -50.3992
lowerback -10.5575 8.25438 9.31468
upperback -21.0374 10.7531 3.23947
thorax -17.4743 3.86985 -1.5102
lowerneck -8.82999 11.8044 7.49567
upperneck 10.3041 14.2116 5.69144
head 4.65295 7.5934 1.54627
rclavicle -6.95746e-015 -6.36111e-014
rhumerus 77.1603 -66.2062 -66.7351
rradius 12.8078
rwrist 55.0567
rhand -3.04772 0.65927
rfingers 7.12502
rthumb 22.6682 -28.0294
lclavicle -6.95746e-015 -6.36111e-014
lhumerus -21.3698 3.86628 -15.9036
lradius 20.7988
lwrist -34.2252
lhand -2.89025 33.1121
lfingers 7.12502
lthumb 22.8193 61.7822
rfemur 199.047 -177.326 -179.708
rtibia 61.368
rfoot 54.4221 -28.3648
rtoes 27.4486
lfemur -59.099 24.9191 12.7671
ltibia 32.0166
lfoot -61.8928 4.7139
ltoes 55.0893
384
root 3.21194 19.2938 -3.46592 83.7946 -30.3385 -51.1061
lowerback -10.4443 8.32678 10.0781
upperback -21.1389 10.8741 3.50361
thorax -17.6486 3.81541 -1.61107
lowerneck -8.76064 11.9582 7.43493
upperneck 10.5432 14.398 5.92331
head 4.69578 7.7023 1.64172
rclavicle -4.90998e-014 -8.5875e-014
rhumerus 68.7803 -64.8928 -57.7533
rradius 12.9721
rwrist 50.7488
rhand -3.16552 0.0471336
rfingers 7.12502
rthumb 22.5551 -28.6553
lclavicle -4.90998e-014 -8.5875e-014
lhumerus -22.1839 3.96718 -15.8257
lradius 20.6977
lwrist -34.609
lhand -2.35526 33.5295
lfingers 7.12502
lthumb 23.3326 62.1354
rfemur 199.266 -177.705 -180.128
rtibia 62.0435
rfoot 54.957 -25.0654
rtoes 24.3908
lfemur -57.963 25.5849 13.9447
ltibia 30.7527
lfoot -61.8354 3.7058
ltoes 55.4507
385
root 3.20352 19.329 -3.45084 84.5108 -30.0726 -51.9373
lowerback -10.3322 8.42911 10.6031
upperback -21.835 11.108 3.85163
thorax -17.4744 3.7918 -1.68672
lowerneck -8.20399 12.1481 7.1369
upperneck 10.6963 14.7096 6.24342
head 4.6068 7.86184 1.76458
rclavicle 3.63776e-014 -3.18055e-015
rhumerus 64.7218 -63.5793 -53.4321
rradius 13.0702
rwrist 47.858
rhand -3.3261 0.774138
rfingers 7.12502
rthumb 22.401 -27.947
lclavicle 3.63776e-014 -3.18055e-015
lhumerus -23.2663 3.88369 -15.8451
lradius 20.5754
lwrist -35.1248
lhand -2.39323 33.1472
lfingers 7.12502
lthumb 23.2962 61.7578
rfemur 199.315 -178.109 -181.164
rtibia 62.6026
rfoot 55.4685 -25.6343
rtoes 25.1093
lfemur -56.8494 26.3592 14.706
ltibia 29.6979
lfoot -61.5741 3.5655
ltoes 55.5348
386
root 3.28269 19.2687 -3.57989 82.817 -17.2333 -53.8096
lowerback -7.25364 8.7571 23.7482
upperback -21.7791 12.5718 6.72379
thorax -18.0145 2.52234 -5.13042
lowerneck -7.69356 12.1925 6.82136
upperneck 10.7325 14.8218 6.59272
head 4.48396 7.92115 1.88018
rclavicle 4.63168e-014 -9.22361e-014
rhumerus 62.13 -62.7093 -50.6239
rradius 13.2392
rwrist 45.7431
rhand -3.28038 1.64819
rfingers 7.12502
rthumb 22.4449 -27.0676
lclavicle 4.63168e-014 -9.22361e-014
lhumerus -24.0635 3.42358 -15.5663
lradius 20.6926
lwrist -34.9564
lhand -2.29377 33.0209
lfingers 7.12502
lthumb 23.3916 61.6193
rfemur 201.943 -179.247 -166.192
rtibia 62.8885
rfoot 56.207 -27.4627
rtoes 23.9631
lfemur -54.5916 27.3 29.6996
ltibia 28.5804
lfoot -60.9355 5.15799
ltoes 55.6913
387
root 3.23583 19.3333 -3.4958 84.5037 -22.2762 -53.7472
lowerback -9.20095 9.0317 18.9258
upperback -22.0806 12.2439 5.62187
thorax -17.5828 3.09497 -3.9034
lowerneck -7.38293 12.1918 6.76965
upperneck 10.6635 14.8367 6.82281
head 4.39058 7.93414 1.92929
rclavicle 7.99114e-014 4.77083e-014
rhumerus 58.3193 -61.554 -46.4326
rradius 13.5124
rwrist 43.1302
rhand -3.20986 1.46421
rfingers 7.12502
rthumb 22.5125 -27.2434
lclavicle 7.99114e-014 4.77083e-014
lhumerus -24.6509 2.81528 -15.2206
lradius 20.9034
lwrist -34.3182
lhand -2.07339 33.0015
lfingers 7.12502
lthumb 23.603 61.5729
rfemur 200.781 -179.339 -173.644
rtibia 63.5746
rfoot 56.6768 -24.2721
rtoes 22.5579
lfemur -54.381 27.7772 24.2072
ltibia 27.7269
lfoot -61.1584 4.10855
ltoes 55.7093
388
root 3.21761 19.3578 -3.46397 85.3877 -23.808 -54.0228
lowerback -10.0861 9.12895 17.7145
upperback -22.2349 12.0891 5.27346
thorax -17.3453 3.20102 -3.58802
lowerneck -7.15059 12.275 7.01842
upperneck 10.7327 14.9316 6.8701
head 4.39019 7.99145 1.904
rclavicle 1.74135e-013 -5.40694e-014
rhumerus 54.6134 -59.8709 -42.4237
rradius 13.7649
rwrist 40.2753
rhand -3.03227 0.755551
rfingers 7.12502
rthumb 22.683 -27.9313
lclavicle 1.74135e-013 -5.40694e-014
lhumerus -25.3617 1.7744 -14.9509
lradius 20.9496
lwrist -32.9862
lhand -2.05569 33.3022
lfingers 7.12502
lthumb 23.62 61.8714
rfemur 200.433 -179.646 -176.593
rtibia 64.1132
rfoot 57.227 -21.1834
rtoes 19.9523
lfemur -53.8332 28.1978 22.7013
ltibia 26.6927
lfoot -61.3468 5.4934
ltoes 55.5435
389
root 3.20892 19.3702 -3.45359 85.915 -23.6656 -54.3445
lowerback -10.4769 9.1725 18.0962
upperback -22.3265 12.0099 5.35847
thorax -17.2182 3.10831 -3.60802
lowerneck -7.10094 12.4331 6.95389
upperneck 10.905 15.1157 7.17708
head 4.40627 8.10101 2.01709
rclavicle 8.64713e-015 1.27222e-014
rhumerus 52.3478 -58.3231 -39.8719
rradius 13.9665
rwrist 38.0392
rhand -2.78743 0.667467
rfingers 7.12502
rthumb 22.918 -27.9905
lclavicle 8.64713e-015 1.27222e-014
lhumerus -25.9965 1.58079 -14.8678
lradius 20.7215
lwrist -32.4406
lhand -1.79132 33.7064
lfingers 7.12502
lthumb 23.8735 62.2426
rfemur 200.306 -180.054 -177.202
rtibia 64.7079
rfoot 57.4164 -21.6255
rtoes 21.2931
lfemur -53.273 28.5252 23.0007
ltibia 25.8519
lfoot -61.2822 6.39883
ltoes 55.4701
390
root 3.20323 19.3765 -3.44371 86.3885 -23.645 -54.628
lowerback -10.8459 9.28843 18.2717
upperback -22.4163 12.0433 5.38358
thorax -17.0968 3.10354 -3.59816
lowerneck -6.97615 12.5178 6.58095
upperneck 10.8509 15.2483 7.59342
head 4.30558 8.17245 2.18065
rclavicle -6.6891e-014 -3.49861e-014
rhumerus 51.3237 -57.4299 -38.5483
rradius 14.1985
rwrist 36.7706
rhand -2.5454 0.872282
rfingers 7.12502
rthumb 23.1502 -27.7567
lclavicle -6.6891e-014 -3.49861e-014
lhumerus -26.4169 3.87414 -15.3623
lradius 20.3873
lwrist -34.3061
lhand -1.7327 32.979
lfingers 7.12502
lthumb 23.9297 61.5079
rfemur 200.194 -180.485 -177.829
rtibia 65.189
rfoot 57.5091 -20.5316
rtoes 20.114
lfemur -52.6127 28.7316 23.1159
ltibia 24.8186
lfoot -61.4021 5.76721
ltoes 55.5901
391
root 3.19446 19.3785 -3.43037 86.8828 -24.1122 -54.946
lowerback -11.3034 9.47171 17.8926
upperback -22.5073 12.151 5.18234
thorax -16.9231 3.21619 -3.56392
lowerneck -6.82116 12.4208 6.58661
upperneck 10.6626 15.131 7.71081
head 4.21454 8.11359 2.18633
rclavicle -1.10027e-013 2.8625e-014
rhumerus 48.6902 -56.285 -35.4001
rradius 14.5225
rwrist 34.7065
rhand -2.54076 0.243271
rfingers 7.12502
rthumb 23.1546 -28.3851
lclavicle -1.10027e-013 2.8625e-014
lhumerus -26.6728 5.75899 -15.6469
lradius 20.3987
lwrist -35.5721
lhand -1.67913 32.2324
lfingers 7.12502
lthumb 23.9811 60.7545
rfemur 200.028 -181.097 -178.867
rtibia 65.5276
rfoot 57.5667 -17.7631
rtoes 17.0973
lfemur -51.874 28.9395 22.7356
ltibia 23.6915
lfoot -61.7222 5.45038
ltoes 55.7071
392
root 3.18922 19.3735 -3.42306 87.1911 -24.1809 -55.207
lowerback -11.5991 9.60918 17.8842
upperback -22.5586 12.2347 5.03381
thorax -16.7619 3.26058 -3.66817
lowerneck -6.75473 12.2883 6.71966
upperneck 10.4092 14.9567 7.73016
head 4.13615 8.02484 2.1478
rclavicle -1.26626e-013 9.22361e-014
rhumerus 46.0993 -55.0492 -32.4139
rradius 14.8901
rwrist 32.5596
rhand -2.44203 -0.339129
rfingers 7.12502
rthumb 23.2494 -28.9556
lclavicle -1.26626e-013 9.22361e-014
lhumerus -26.8523 5.91987 -15.439
lradius 20.6185
lwrist -35.2237
lhand -0.967858 32.5017
lfingers 7.12502
lthumb 24.663 60.9324
rfemur 200.028 -181.794 -179.219
rtibia 65.6755
rfoot 57.718 -18.518
rtoes 18.7689
lfemur -51.129 29.037 22.756
ltibia 22.5621
lfoot -62.0387 5.42637
ltoes 55.9363
393
root 3.19423 19.3563 -3.42855 87.2228 -23.2221 -55.3537
lowerback -11.5892 9.71465 18.9981
upperback -22.6088 12.332 5.10675
thorax -16.6881 3.1356 -4.09101
lowerneck -6.64621 12.2607 6.47752
upperneck 9.95113 14.9627 7.93399
head 4.36161 7.99799 2.45407
rclavicle 6.90777e-014 -2.22639e-014
rhumerus 45.8642 -54.7587 -32.2632
rradius 15.2338
rwrist 32.1138
rhand -1.91936 0.27342
rfingers 7.12502
rthumb 23.7507 -28.2788
lclavicle 6.90777e-014 -2.22639e-014
lhumerus -26.9646 6.07169 -15.316
lradius 20.5193
lwrist -35.2296
lhand -0.173146 33.1797
lfingers 7.12502
lthumb 25.4245 61.5042
rfemur 200.294 -182.508 -178.171
rtibia 65.6652
rfoot 57.7426 -17.7569
rtoes 18.2999
lfemur -50.4741 29.0166 23.8458
ltibia 21.5189
lfoot -62.3365 5.90701
ltoes 56.0446
394
root 3.18895 19.3437 -3.42646 87.5764 -23.1099 -55.5273
lowerback -11.8984 9.80905 19.2283
upperback -22.7084 12.343 5.05728
thorax -16.5942 3.10126 -4.19661
lowerneck -6.41677 12.3204 6.27891
upperneck 9.8724 15.0655 8.24273
head 4.24099 8.05112 2.5609
rclavicle 1.47598e-014 -4.45278e-014
rhumerus 44.3337 -53.6876 -30.5015
rradius 15.6282
rwrist 30.4427
rhand -1.55862 0.449314
rfingers 7.12502
rthumb 24.0967 -28.0576
lclavicle 1.47598e-014 -4.45278e-014
lhumerus -27.044 7.0114 -15.5866
lradius 20.0944
lwrist -35.9606
lhand 0.103782 33.1311
lfingers 7.12502
lthumb 25.6898 61.4175
rfemur 200.247 -183.196 -177.991
rtibia 65.6349
rfoot 57.7597 -17.2748
rtoes 18.3142
lfemur -50.0659 29.1203 23.9555
ltibia 20.6289
lfoot -62.6917 5.97964
ltoes 56.1349
395
root 3.17824 19.3331 -3.41659 88.0459 -23.797 -55.6769
lowerback -12.3827 9.89742 18.5421
upperback -22.7837 12.3268 4.80603
thorax -16.4346 3.19643 -4.08052
lowerneck -6.657 12.3572 6.24473
upperneck 9.95947 15.0622 8.54522
head 4.29211 8.06955 2.69048
rclavicle 5.54609e-014 -1.145e-013
rhumerus 41.5953 -52.0957 -27.1726
rradius 15.9918
rwrist 27.6477
rhand -1.58515 -0.179213
rfingers 7.12502
rthumb 24.0712 -28.6895
lclavicle 5.54609e-014 -1.145e-013
lhumerus -27.1255 7.5372 -15.6214
lradius 20.0133
lwrist -36.0345
lhand -0.0237057 32.6696
lfingers 7.12502
lthumb 25.5677 60.9736
rfemur 200.072 -183.845 -178.677
rtibia 65.6137
rfoot 56.6481 -13.2275
rtoes 14.0415
lfemur -49.8179 29.1888 23.1578
ltibia 19.926
lfoot -62.9554 6.18798
ltoes 56.1935
